HIERARCHY
ROOT pelvis
{
  OFFSET 0 100 0
  CHANNELS 6 Xposition Yposition Zposition Zrotation Xrotation Yrotation
  JOINT pelvis_right_femur
  {
    OFFSET -10.78128 -3.44521 -0.5502486
    CHANNELS 3 Zrotation Xrotation Yrotation
    JOINT right_femur_tibia
    {
      OFFSET -0.8047443 -44.0398 -0.1307829
      CHANNELS 3 Zrotation Xrotation Yrotation
      JOINT right_tibia_foot
      {
        OFFSET 3.006224 -47.83518 -5
        CHANNELS 3 Zrotation Xrotation Yrotation
        End Site
        {
          OFFSET 0 -5 15
        }
      }
    }
  }
  JOINT pelvis_left_femur
  {
    OFFSET 10.78128 -3.44521 -0.5502486
    CHANNELS 3 Zrotation Xrotation Yrotation
    JOINT left_femur_tibia
    {
      OFFSET 0.8047443 -44.0398 -0.1307829
      CHANNELS 3 Zrotation Xrotation Yrotation
      JOINT left_tibia_foot
      {
        OFFSET -4.370144 -48.10324 -4.275266
        CHANNELS 3 Zrotation Xrotation Yrotation
        End Site
        {
          OFFSET 0 -5 15
        }
      }
    }
  }
  JOINT pelvis_spine1
  {
    OFFSET 0 6.468898 -3.129235
    CHANNELS 3 Zrotation Xrotation Yrotation
    JOINT spine1
    {
      OFFSET 0 23.15396 4.99043
      CHANNELS 3 Zrotation Xrotation Yrotation
      JOINT spine2
      {
        OFFSET 0 20.79997 -5.064912
        CHANNELS 3 Zrotation Xrotation Yrotation
        JOINT neck
        {
          OFFSET 0 14.38658 9.616178
          CHANNELS 3 Zrotation Xrotation Yrotation
          End Site
          {
            OFFSET 0 20 0
          }
        }
      }
      JOINT right_manubrium
      {
        OFFSET -5.722621 16.35077 3.967754
        CHANNELS 3 Zrotation Xrotation Yrotation
        JOINT right_clavicle
        {
          OFFSET -13.16364 1.694482 -4.693211
          CHANNELS 3 Zrotation Xrotation Yrotation
          JOINT right_humerus
          {
            OFFSET -28.5034 -0.3100689 -2.792744
            CHANNELS 3 Zrotation Xrotation Yrotation
            JOINT right_radius
            {
              OFFSET -25.15693 0.02248979 -1.271978
              CHANNELS 3 Zrotation Xrotation Yrotation
              End Site
              {
                OFFSET -15 0 0
              }
            }
          }
        }
      }
      JOINT left_manubrium
      {
        OFFSET 5.722621 16.35077 3.967754
        CHANNELS 3 Zrotation Xrotation Yrotation
        JOINT left_clavicle
        {
          OFFSET 13.16364 1.694482 -4.693211
          CHANNELS 3 Zrotation Xrotation Yrotation
          JOINT left_humerus
          {
            OFFSET 29.39168 -1.063119 -2.237045
            CHANNELS 3 Zrotation Xrotation Yrotation
            JOINT left_radius
            {
              OFFSET 24.59957 -0.9528479 0.9047498
              CHANNELS 3 Zrotation Xrotation Yrotation
              End Site
              {
                OFFSET 15 -0 -0
              }
            }
          }
        }
      }
    }
  }
}
MOTION
Frames: 11
Frame Time: 0.0416666666667
0 103.5113 0 2.182073 -1.222622 0.2975343 1.250056 -10.02472 8.775688 -0 34.95487 -0 -5.274777 -18.02218 -2.461559 -8.03586 10.0959 -23.52178 -0 5.124259 -0 7.702074 -16.125 26.59591 -4.325705 -5.06487 4.931981 1.996876 9.221616 -7.752144 0.8321746 22.84199 7.170521 3.236605 -23.09759 8.816543 6.378043 -19.76841 11.57239 86.30981 35.94536 -19.77632 -0 0 16.27506 -7.57635 8.239837 4.618805 5.473158 -19.48041 -1.687388 -94.80887 29.7428 22.99182 0 0 -15.90583 3.484012 17.91383 9.575528
0.3181298 103.563 1.328932 2.019179 -1.141489 0.5158762 1.545027 -10.94811 8.734429 -0 35.27186 -0 -5.33493 -17.73752 -2.607013 -7.875093 10.22963 -23.42213 -0 5.147191 -0 7.59961 -16.34884 26.45775 -4.24012 -4.883992 4.836275 2.060133 9.19828 -7.792613 0.8475776 22.78284 7.18238 3.236726 -23.22899 8.85838 6.377367 -19.73961 11.57078 86.27757 35.92131 -19.78798 -0 0 16.21429 -7.617552 8.266083 4.642741 5.51383 -19.52544 -1.673483 -94.75165 29.69026 22.93954 0 0 -16.05702 3.518659 17.84353 9.566817
0.6486713 103.5489 2.760079 1.769818 -0.938315 0.6099446 1.95198 -12.4502 8.515785 -0 34.09009 -0 -5.391035 -17.14311 -2.387801 -7.616731 10.3639 -23.18525 -0 5.216345 -0 7.399645 -16.7233 26.21057 -4.161909 -4.595689 4.765144 2.241819 9.129373 -7.826534 0.8878957 22.6227 7.1945 3.263858 -23.44768 8.903397 6.365775 -19.68209 11.58392 86.19555 35.88254 -19.8239 -0 0 16.07881 -7.689136 8.308844 4.668268 5.682052 -19.6006 -1.643178 -94.63443 29.59627 22.70781 0 0 -16.50248 3.620438 17.73956 9.482555
1.006885 103.4067 4.384779 1.480757 -0.537859 0.5228258 2.353953 -14.39977 8.052369 -0 30.76046 -0 -5.407714 -16.06259 -1.715361 -7.35936 10.46651 -22.7699 -0 5.389692 -0 7.106405 -17.28008 25.83836 -4.124258 -4.23061 4.790018 2.521746 9.005912 -7.792353 1.009531 22.33073 7.18036 3.347675 -23.75205 8.962731 6.28953 -19.51091 11.60738 86.11734 35.82258 -19.9447 -0 0 15.84382 -7.790098 8.371144 4.69254 5.996636 -19.73614 -1.569902 -94.4444 29.47051 22.23773 0 0 -17.30583 3.78777 17.60749 9.286723
1.406616 103.0642 6.236914 1.248147 0.016497 0.3324091 2.590702 -16.534 7.411502 -0 25.38829 -0 -5.380001 -14.41451 -0.6531661 -7.210694 10.58162 -22.18095 -0 5.732735 -0 6.729544 -18.01743 25.28956 -4.125258 -3.89191 4.946016 2.833061 8.859285 -7.638308 1.19468 21.9849 7.129723 3.469642 -24.04857 9.013659 6.142359 -19.21385 11.65455 86.08029 35.7436 -20.1459 -0 0 15.50921 -7.915923 8.455019 4.716823 6.431548 -19.96211 -1.449801 -94.14888 29.33449 21.52812 0 0 -18.38053 3.979192 17.44701 9.007947
1.856631 102.4909 8.327719 1.143877 0.6878035 0.1076378 2.580343 -18.56749 6.628563 -0 18.4369 -0 -5.331227 -12.33974 0.6586083 -7.193211 10.74433 -21.44457 -0 6.280244 -0 6.247773 -18.87779 24.48919 -4.173548 -3.657573 5.129974 3.071458 8.722284 -7.456995 1.362369 21.69344 7.08342 3.594699 -24.24261 9.035623 5.940867 -18.88188 11.64636 86.13542 35.6588 -20.38662 -0 0 15.09052 -8.05121 8.566999 4.747876 6.907654 -20.24492 -1.279894 -93.75048 29.18422 20.69549 0 0 -19.49745 4.158169 17.25635 8.728573
2.344289 101.7098 10.75345 1.160035 1.468105 -0.0805857 2.439101 -20.26629 5.6588 -0 10.71165 -0 -5.284042 -10.21624 1.990308 -7.305652 10.99804 -20.54018 -0 7.102315 -0 5.601465 -19.75666 23.42238 -4.242145 -3.567561 5.235227 3.197544 8.589586 -7.351825 1.452102 21.50482 7.084155 3.698044 -24.29741 9.028252 5.694357 -18.54452 11.55435 86.33815 35.57597 -20.66742 -0 0 14.60272 -8.185452 8.717227 4.796297 7.354405 -20.54286 -1.134547 -93.26226 29.02735 19.83608 0 0 -20.46427 4.29606 17.04192 8.519438
2.846589 100.7753 13.62399 1.192873 2.260581 -0.1083541 2.334916 -21.37899 4.631713 -0 3.474785 -0 -5.312031 -8.458546 3.168606 -7.422063 11.34508 -19.50938 -0 8.383624 -0 4.699171 -20.48975 22.06273 -4.224485 -3.597829 5.222636 3.233525 8.466857 -7.356685 1.453269 21.40035 7.136245 3.768105 -24.23751 8.992554 5.461569 -18.15664 11.40429 86.71205 35.49444 -21.04347 -0 0 14.03199 -8.313539 8.916646 4.863892 7.642679 -20.8234 -1.060738 -92.7486 28.86733 19.06726 0 0 -21.08266 4.358155 16.79538 8.429544
3.337579 99.81141 17.01718 1.132731 2.99967 0.1744204 2.376671 -21.6562 3.720759 0 -2.000771 0 -5.509832 -7.304373 4.033426 -7.36299 11.74138 -18.36994 -0 10.36469 -0 3.429521 -20.79438 20.36274 -4.016631 -3.720056 5.054735 3.22406 8.328388 -7.513799 1.380369 21.32458 7.218048 3.805333 -24.13452 8.918447 5.304513 -17.72199 11.2339 87.20524 35.41948 -21.51226 -0 0 13.37694 -8.451556 9.1697 4.955654 7.649507 -21.01474 -1.086607 -92.28215 28.68316 18.51922 0 0 -21.19802 4.334031 16.50281 8.477865
3.794676 99.0192 20.97824 0.8951715 3.71538 0.8190433 2.536315 -20.80501 3.0242 0 -4.891195 0 -5.952335 -6.682459 4.470433 -6.983426 12.01288 -17.12618 -0 13.33879 -0 1.718848 -20.25625 18.32255 -3.531422 -3.94956 4.712992 3.198665 8.149717 -7.83637 1.235431 21.22951 7.311386 3.799935 -24.03845 8.792104 5.233875 -17.25272 11.08089 87.77063 35.35787 -22.04176 -0 0 12.64663 -8.622321 9.475918 5.077085 7.335841 -21.05171 -1.235391 -91.92976 28.45706 18.27825 0 0 -20.75575 4.226938 16.15785 8.669142
4.220818 98.57764 25.5357 0.469839 4.309522 1.657653 2.811493 -18.71154 2.634625 0 -5.386638 0 -6.613688 -6.457684 4.556916 -6.327739 11.87033 -15.90589 -0 17.75396 -0 -0.3570067 -18.4005 16.03914 -2.739999 -4.281613 4.31762 3.15148 7.987214 -8.205011 1.022814 21.12387 7.394556 3.739502 -23.90925 8.596619 5.198498 -16.74518 10.99258 88.36285 35.31209 -22.5697 -0 0 11.88601 -8.851396 9.830024 5.240888 6.759012 -20.87934 -1.478505 -91.78359 28.17719 18.39089 0 0 -19.83229 4.042066 15.76125 8.983388
